HIERARCHY
ROOT root
{
	OFFSET	0	13.1	24.9
	CHANNELS 6  Xposition Yposition Zposition Xrotation Yrotation Zrotation
	JOINT spine_1
	{
		OFFSET	0	9.99999	0
		CHANNELS 3  Xrotation Yrotation Zrotation
		JOINT spine_2
		{
			OFFSET	0	112	-10
			CHANNELS 3  Xrotation Yrotation Zrotation
			JOINT spine_3
			{
				OFFSET	0	206.5	19.3
				CHANNELS 3  Xrotation Yrotation Zrotation
				JOINT spine_4
				{
					OFFSET	0	110.4	14.6
					CHANNELS 3  Xrotation Yrotation Zrotation
					JOINT neck_1
					{
						OFFSET	0	71.8	-50.3
						CHANNELS 3  Xrotation Yrotation Zrotation
						JOINT neck_2
						{
							OFFSET	0	86.2	-25.8
							CHANNELS 3  Xrotation Yrotation Zrotation
							JOINT head_ee
							{
								OFFSET	0	179.8	-8.7
								CHANNELS 3  Xrotation Yrotation Zrotation
								End Site
								{
									OFFSET	1	0	0
								}
							}
						}
					}
					JOINT left_clavicle
					{
						OFFSET	-43.2	22.4	-70.8
						CHANNELS 3  Xrotation Yrotation Zrotation
						JOINT left_shoulder
						{
							OFFSET	-93.9	-5.79999	48.7
							CHANNELS 3  Xrotation Yrotation Zrotation
							JOINT left_elbow
							{
								OFFSET	-291.4	-30.8	15.2
								CHANNELS 3  Xrotation Yrotation Zrotation
								JOINT left_lowarm_twist
								{
									OFFSET	-110.7	-3.89999	13.6
									CHANNELS 3  Xrotation Yrotation Zrotation
									JOINT left_hand
									{
										OFFSET	-110.7	-3.89999	13.6
										CHANNELS 3  Xrotation Yrotation Zrotation
										JOINT left_ee
										{
											OFFSET	-80.8	-5.10001	12.1
											CHANNELS 3  Xrotation Yrotation Zrotation
											End Site
											{
												OFFSET	1	0	0
											}
										}
									}
								}
							}
						}
					}
					JOINT right_clavicle
					{
						OFFSET	43.2	22.4	-70.8
						CHANNELS 3  Xrotation Yrotation Zrotation
						JOINT right_shoulder
						{
							OFFSET	93.9	-5.79999	48.7
							CHANNELS 3  Xrotation Yrotation Zrotation
							JOINT right_elbow
							{
								OFFSET	291.4	-30.8	15.2
								CHANNELS 3  Xrotation Yrotation Zrotation
								JOINT right_lowarm_twist
								{
									OFFSET	110.7	-3.89999	13.6
									CHANNELS 3  Xrotation Yrotation Zrotation
									JOINT right_hand
									{
										OFFSET	110.7	-3.89999	13.6
										CHANNELS 3  Xrotation Yrotation Zrotation
										JOINT right_ee
										{
											OFFSET	80.8	-5.10001	12.1
											CHANNELS 3  Xrotation Yrotation Zrotation
											End Site
											{
												OFFSET	1	0	0
											}
										}
									}
								}
							}
						}
					}
				}
			}
		}
	}
	JOINT left_hip
	{
		OFFSET	-82.8	-127.5	0.300001
		CHANNELS 3  Xrotation Yrotation Zrotation
		JOINT left_knee
		{
			OFFSET	-28.2	-396.7	2.2
			CHANNELS 3  Xrotation Yrotation Zrotation
			JOINT left_ankle
			{
				OFFSET	-11.7	-411.3	35.4
				CHANNELS 3  Xrotation Yrotation Zrotation
				JOINT left_toes
				{
					OFFSET	0	-60	-88.6
					CHANNELS 3  Xrotation Yrotation Zrotation
					JOINT left_foot_ee
					{
						OFFSET	-22.5	-16.5	-42.2
						CHANNELS 3  Xrotation Yrotation Zrotation
						End Site
						{
							OFFSET	1	0	0
						}
					}
				}
			}
		}
	}
	JOINT right_hip
	{
		OFFSET	82.8	-127.5	0.300001
		CHANNELS 3  Xrotation Yrotation Zrotation
		JOINT right_knee
		{
			OFFSET	28.2	-396.7	2.2
			CHANNELS 3  Xrotation Yrotation Zrotation
			JOINT right_ankle
			{
				OFFSET	11.7	-411.3	35.4
				CHANNELS 3  Xrotation Yrotation Zrotation
				JOINT right_toes
				{
					OFFSET	0	-60	-88.6
					CHANNELS 3  Xrotation Yrotation Zrotation
					JOINT right_foot_ee
					{
						OFFSET	22.5	-16.5	-42.2
						CHANNELS 3  Xrotation Yrotation Zrotation
						End Site
						{
							OFFSET	1	0	0
						}
					}
				}
			}
		}
	}
}
MOTION
Frames: 15
Frame Time: 0.02
1041.4 574.639 -1682.42 -7.86901067847 37.2887842765 8.92134608563 3.32419 -0.00457406 -0.621129 3.3244 0.0349585 -0.620161 3.32393 0.129521 -0.607492 3.32342 0.0319555 -0.620323 1.76966 2.49776 3.18011 1.79514 1.72237 3.70426 -0.0 0.0 -0.0 3.98735 21.43 8.20975 -24.9026 -3.61162 70.2056 0.442897 -12.3747 0.0480155 18.3932 0.277322 -2.32313 0.795588 -0.693559 5.03634 -0.0 0.0 -0.0 9.70489 -5.09056 -18.745 4.5872 19.9255 -61.0863 1.13153 29.2709 -0.295499 -19.3647 1.0687 -2.22182 2.86844 27.2583 -6.88454 0.0 0.0 0.0 23.2296 -50.7433 -10.0587 0.734425 -0.0309384 -0.108454 -12.5791 30.2668 2.02266 14.5205 -0.0 -0.0 -0.0 0.0 -0.0 -2.46283 -23.4908 0.0927838 -18.9789 -0.306391 -2.88306 37.019 16.8636 4.95451 16.2227 -0.0 -0.0 0.0 0.0 0.0 
1041.4 574.639 -1682.42 -7.92902302304 37.8510550857 9.01976948412 3.32419 -0.00457406 -0.621129 3.3244 0.0349585 -0.620161 3.32393 0.129521 -0.607492 3.32342 0.0319555 -0.620323 1.76966 2.49776 3.18011 1.79514 1.72237 3.70426 -0.0 0.0 -0.0 3.98735 21.43 8.20975 -24.9026 -3.61162 70.2056 0.442897 -12.3747 0.0480155 18.3932 0.277322 -2.32313 0.795588 -0.693559 5.03634 -0.0 0.0 -0.0 9.70489 -5.09056 -18.745 4.5872 19.9255 -61.0863 1.13153 29.2709 -0.295499 -19.3647 1.0687 -2.22182 2.86844 27.2583 -6.88454 0.0 0.0 0.0 23.2296 -50.7433 -10.0587 0.734425 -0.0309384 -0.108454 -12.5791 30.2668 2.02266 14.5205 -0.0 -0.0 -0.0 0.0 -0.0 -2.46283 -23.4908 0.0927838 -18.9789 -0.306391 -2.88306 37.019 16.8636 4.95451 16.2227 -0.0 -0.0 0.0 0.0 0.0 
1041.4 574.639 -1682.42 -8.01202578458 38.6036296971 9.15390520139 3.32419 -0.00457406 -0.621129 3.3244 0.0349585 -0.620161 3.32393 0.129521 -0.607492 3.32342 0.0319555 -0.620323 1.76966 2.49776 3.18011 1.79514 1.72237 3.70426 -0.0 0.0 -0.0 3.98735 21.43 8.20975 -24.9026 -3.61162 70.2056 0.442897 -12.3747 0.0480155 18.3932 0.277322 -2.32313 0.795588 -0.693559 5.03634 -0.0 0.0 -0.0 9.70489 -5.09056 -18.745 4.5872 19.9255 -61.0863 1.13153 29.2709 -0.295499 -19.3647 1.0687 -2.22182 2.86844 27.2583 -6.88454 0.0 0.0 0.0 23.2296 -50.7433 -10.0587 0.734425 -0.0309384 -0.108454 -12.5791 30.2668 2.02266 14.5205 -0.0 -0.0 -0.0 0.0 -0.0 -2.46283 -23.4908 0.0927838 -18.9789 -0.306391 -2.88306 37.019 16.8636 4.95451 16.2227 -0.0 -0.0 0.0 0.0 0.0 
1022.0756049 577.476 -1699.21569748 -7.5994873001 39.0948151832 9.92548650463 3.29847 -0.184323 -0.818369 3.29883 -0.131876 -0.828438 3.30061 -0.00311997 -0.838862 3.29965 -0.135559 -0.827844 3.22487 2.3534 3.23406 3.25058 1.32415 3.77648 -0.0 0.0 -0.0 3.66718 22.1098 7.75057 -24.6708 -4.94402 70.7276 0.44679 -12.4801 0.0488531 18.9473 0.274029 -2.39382 0.714653 -0.0700423 4.7495 -0.0 0.0 -0.0 9.65041 -5.6714 -18.5944 2.4847 19.6858 -61.3443 1.12413 29.1108 -0.291888 -19.5618 1.08334 -2.24238 2.8909 27.0934 -7.1139 0.0 0.0 0.0 21.0682 -50.8315 -11.1309 0.379838 -0.0158269 -0.0561401 -12.3818 30.2023 1.98963 14.4784 -0.0 -0.0 -0.0 0.0 -0.0 -3.14331 -23.4089 -0.585414 -19.7664 -0.298345 -3.00362 36.5847 16.9088 4.91418 16.4657 -0.0 -0.0 0.0 0.0 0.0 
1021.88270927 577.476 -1698.99115152 -7.67184997773 39.7513943488 10.0394340351 3.29847 -0.184323 -0.818369 3.29883 -0.131876 -0.828438 3.30061 -0.00311997 -0.838862 3.29965 -0.135559 -0.827844 3.22487 2.3534 3.23406 3.25058 1.32415 3.77648 -0.0 0.0 -0.0 3.66718 22.1098 7.75057 -24.6708 -4.94402 70.7276 0.44679 -12.4801 0.0488531 18.9473 0.274029 -2.39382 0.714653 -0.0700423 4.7495 -0.0 0.0 -0.0 9.65041 -5.6714 -18.5944 2.4847 19.6858 -61.3443 1.12413 29.1108 -0.291888 -19.5618 1.08334 -2.24238 2.8909 27.0934 -7.1139 0.0 0.0 0.0 21.0682 -50.8315 -11.1309 0.379838 -0.0158269 -0.0561401 -12.3818 30.2023 1.98963 14.4784 -0.0 -0.0 -0.0 0.0 -0.0 -3.14331 -23.4089 -0.585414 -19.7664 -0.298345 -3.00362 36.5847 16.9088 4.91418 16.4657 -0.0 -0.0 0.0 0.0 0.0 
1003.68725141 572.994 -1712.53112575 -7.48745546805 39.5495044187 10.303126968 3.18712 -0.364985 -0.87864 3.18749 -0.308337 -0.900082 3.19223 -0.16474 -0.937056 3.19114 -0.310657 -0.899284 3.82916 2.10517 2.83238 3.84865 1.20069 3.32059 -0.0 0.0 -0.0 4.22018 20.7808 8.55252 -22.4583 -6.22822 70.9851 0.481081 -13.4045 0.0565337 20.8962 0.257019 -2.64216 0.21604 0.358101 1.59236 -0.0 0.0 -0.0 8.93406 -6.30061 -17.1642 -0.63287 22.0465 -62.637 1.13155 29.2714 -0.29551 -20.7104 1.17009 -2.36118 3.19391 26.4717 -9.39464 0.0 0.0 0.0 19.904 -50.8503 -11.5987 -1.11567 0.044328 0.165473 -10.64 30.0368 1.7045 17.3867 -0.0 -0.0 -0.0 0.0 -0.0 -4.25898 -23.2632 -0.812692 -20.8607 -0.284414 -3.17095 34.8172 15.1209 4.68106 16.5085 -0.0 -0.0 0.0 0.0 0.0 
1003.31368802 572.994 -1712.0572087 -7.56593715268 40.259781092 10.4254632372 3.18712 -0.364985 -0.87864 3.18749 -0.308337 -0.900082 3.19223 -0.16474 -0.937056 3.19114 -0.310657 -0.899284 3.82916 2.10517 2.83238 3.84865 1.20069 3.32059 -0.0 0.0 -0.0 4.22018 20.7808 8.55252 -22.4583 -6.22822 70.9851 0.481081 -13.4045 0.0565337 20.8962 0.257019 -2.64216 0.21604 0.358101 1.59236 -0.0 0.0 -0.0 8.93406 -6.30061 -17.1642 -0.63287 22.0465 -62.637 1.13155 29.2714 -0.29551 -20.7104 1.17009 -2.36118 3.19391 26.4717 -9.39464 0.0 0.0 0.0 19.904 -50.8503 -11.5987 -1.11567 0.044328 0.165473 -10.64 30.0368 1.7045 17.3867 -0.0 -0.0 -0.0 0.0 -0.0 -4.25898 -23.2632 -0.812692 -20.8607 -0.284414 -3.17095 34.8172 15.1209 4.68106 16.5085 -0.0 -0.0 0.0 0.0 0.0 
981.922141938 579.571 -1726.21728759 -6.54391572109 39.792894934 11.3777431568 3.02357 -0.319713 -1.14459 3.02427 -0.246238 -1.16261 3.02907 -0.0592142 -1.18692 3.02719 -0.24591 -1.16268 4.23031 0.0341371 3.36512 4.27967 -2.85756 3.81261 -0.0 0.0 -0.0 4.55461 21.572 9.03046 -21.2752 -7.09524 69.0584 0.599505 -16.5404 0.0871405 20.598 0.260168 -2.60421 0.426852 0.065423 2.87882 -0.0 0.0 -0.0 8.62181 -5.88451 -16.5916 -2.5926 18.2466 -63.1708 1.05813 27.6613 -0.260509 -19.4095 1.07202 -2.22649 3.26102 26.8219 -9.64393 0.0 0.0 0.0 17.5713 -50.2237 -13.6426 -3.78766 0.137313 0.564966 -6.78987 29.8472 1.08067 20.2562 -0.0 -0.0 -0.0 0.0 -0.0 -5.2579 -23.2707 -1.59465 -22.0492 -0.265667 -3.35235 33.5269 15.6577 4.56582 15.8122 -0.0 -0.0 0.0 0.0 0.0 
961.953546841 591.152 -1735.22932948 -5.82004272494 41.1997265518 12.1850152417 2.74131 -0.506559 -1.58557 2.74262 -0.404652 -1.61458 2.7538 -0.136222 -1.65893 2.75018 -0.396474 -1.61661 4.82291 0.0938604 1.91267 4.83844 -1.5079 2.18594 -0.0 0.0 -0.0 5.14393 19.6822 9.94948 -20.6335 -8.76512 68.3619 0.577247 -15.9581 0.0809124 20.9393 0.256547 -2.64765 0.545701 0.213951 3.73502 -0.0 0.0 -0.0 7.97986 -7.12015 -15.3086 -4.27796 16.3975 -63.5328 1.04428 27.352 -0.254111 -19.2318 1.05886 -2.20792 2.64211 24.3817 -6.87621 0.0 0.0 0.0 15.4595 -49.6664 -14.0437 -4.19118 0.149731 0.625648 -9.77026 29.4513 1.55736 18.087 -0.0 -0.0 -0.0 0.0 -0.0 -3.48426 -23.369 -2.61669 -24.4786 -0.215658 -3.72177 35.2773 15.2786 4.73193 15.718 -0.0 -0.0 0.0 0.0 0.0 
943.066959695 594.228 -1745.95613605 -5.56547939362 44.6930786815 13.6250008044 2.58047 -0.596208 -1.97379 2.58252 -0.469428 -2.00771 2.59871 -0.130561 -2.0577 2.59308 -0.453832 -2.01129 5.06744 -0.993325 1.38956 5.08719 -2.91778 1.54045 -0.0 0.0 -0.0 5.35789 19.2219 10.2893 -21.4306 -9.3046 68.1976 0.585418 -16.1723 0.0831735 21.4502 0.250641 -2.71264 0.514195 -0.496336 3.23052 -0.0 0.0 -0.0 7.09123 -7.71598 -13.6336 -6.88893 15.8878 -63.7732 0.99416 26.2187 -0.231525 -19.2208 1.05805 -2.20677 2.63702 23.8726 -7.09625 0.0 0.0 0.0 13.9649 -49.1818 -13.9155 -4.97311 0.172575 0.743476 -6.90248 30.3517 1.1026 20.4648 -0.0 -0.0 -0.0 0.0 -0.0 -2.8878 -23.2497 -3.62245 -28.453 -0.100203 -4.32067 34.8729 14.0742 4.65553 15.492 -0.0 -0.0 0.0 0.0 0.0 
941.836907365 594.228 -1744.0107297 -5.67679986591 45.8141121604 13.7817319776 2.58047 -0.596208 -1.97379 2.58252 -0.469428 -2.00771 2.59871 -0.130561 -2.0577 2.59308 -0.453832 -2.01129 5.06744 -0.993325 1.38956 5.08719 -2.91778 1.54045 -0.0 0.0 -0.0 5.35789 19.2219 10.2893 -21.4306 -9.3046 68.1976 0.585418 -16.1723 0.0831735 21.4502 0.250641 -2.71264 0.514195 -0.496336 3.23052 -0.0 0.0 -0.0 7.09123 -7.71598 -13.6336 -6.88893 15.8878 -63.7732 0.99416 26.2187 -0.231525 -19.2208 1.05805 -2.20677 2.63702 23.8726 -7.09625 0.0 0.0 0.0 13.9649 -49.1818 -13.9155 -4.97311 0.172575 0.743476 -6.90248 30.3517 1.1026 20.4648 -0.0 -0.0 -0.0 0.0 -0.0 -2.8878 -23.2497 -3.62245 -28.453 -0.100203 -4.32067 34.8729 14.0742 4.65553 15.492 -0.0 -0.0 0.0 0.0 0.0 
940.623837301 594.228 -1742.00516956 -5.79715322246 46.9554846688 13.9479601501 2.58047 -0.596208 -1.97379 2.58252 -0.469428 -2.00771 2.59871 -0.130561 -2.0577 2.59308 -0.453832 -2.01129 5.06744 -0.993325 1.38956 5.08719 -2.91778 1.54045 -0.0 0.0 -0.0 5.35789 19.2219 10.2893 -21.4306 -9.3046 68.1976 0.585418 -16.1723 0.0831735 21.4502 0.250641 -2.71264 0.514195 -0.496336 3.23052 -0.0 0.0 -0.0 7.09123 -7.71598 -13.6336 -6.88893 15.8878 -63.7732 0.99416 26.2187 -0.231525 -19.2208 1.05805 -2.20677 2.63702 23.8726 -7.09625 0.0 0.0 0.0 13.9649 -49.1818 -13.9155 -4.97311 0.172575 0.743476 -6.90248 30.3517 1.1026 20.4648 -0.0 -0.0 -0.0 0.0 -0.0 -2.8878 -23.2497 -3.62245 -28.453 -0.100203 -4.32067 34.8729 14.0742 4.65553 15.492 -0.0 -0.0 0.0 0.0 0.0 
939.174006736 594.228 -1739.48201627 -5.95722787146 48.3722081405 14.1644928474 2.58047 -0.596208 -1.97379 2.58252 -0.469428 -2.00771 2.59871 -0.130561 -2.0577 2.59308 -0.453832 -2.01129 5.06744 -0.993325 1.38956 5.08719 -2.91778 1.54045 -0.0 0.0 -0.0 5.35789 19.2219 10.2893 -21.4306 -9.3046 68.1976 0.585418 -16.1723 0.0831735 21.4502 0.250641 -2.71264 0.514195 -0.496336 3.23052 -0.0 0.0 -0.0 7.09123 -7.71598 -13.6336 -6.88893 15.8878 -63.7732 0.99416 26.2187 -0.231525 -19.2208 1.05805 -2.20677 2.63702 23.8726 -7.09625 0.0 0.0 0.0 13.9649 -49.1818 -13.9155 -4.97311 0.172575 0.743476 -6.90248 30.3517 1.1026 20.4648 -0.0 -0.0 -0.0 0.0 -0.0 -2.8878 -23.2497 -3.62245 -28.453 -0.100203 -4.32067 34.8729 14.0742 4.65553 15.492 -0.0 -0.0 0.0 0.0 0.0 
937.870358247 594.228 -1737.08114414 -6.11924359085 49.7018499229 14.3790307388 2.58047 -0.596208 -1.97379 2.58252 -0.469428 -2.00771 2.59871 -0.130561 -2.0577 2.59308 -0.453832 -2.01129 5.06744 -0.993325 1.38956 5.08719 -2.91778 1.54045 -0.0 0.0 -0.0 5.35789 19.2219 10.2893 -21.4306 -9.3046 68.1976 0.585418 -16.1723 0.0831735 21.4502 0.250641 -2.71264 0.514195 -0.496336 3.23052 -0.0 0.0 -0.0 7.09123 -7.71598 -13.6336 -6.88893 15.8878 -63.7732 0.99416 26.2187 -0.231525 -19.2208 1.05805 -2.20677 2.63702 23.8726 -7.09625 0.0 0.0 0.0 13.9649 -49.1818 -13.9155 -4.97311 0.172575 0.743476 -6.90248 30.3517 1.1026 20.4648 -0.0 -0.0 -0.0 0.0 -0.0 -2.8878 -23.2497 -3.62245 -28.453 -0.100203 -4.32067 34.8729 14.0742 4.65553 15.492 -0.0 -0.0 0.0 0.0 0.0 
936.562225461 594.228 -1734.52823764 -6.30285347738 51.0975112519 14.6173095866 2.58047 -0.596208 -1.97379 2.58252 -0.469428 -2.00771 2.59871 -0.130561 -2.0577 2.59308 -0.453832 -2.01129 5.06744 -0.993325 1.38956 5.08719 -2.91778 1.54045 -0.0 0.0 -0.0 5.35789 19.2219 10.2893 -21.4306 -9.3046 68.1976 0.585418 -16.1723 0.0831735 21.4502 0.250641 -2.71264 0.514195 -0.496336 3.23052 -0.0 0.0 -0.0 7.09123 -7.71598 -13.6336 -6.88893 15.8878 -63.7732 0.99416 26.2187 -0.231525 -19.2208 1.05805 -2.20677 2.63702 23.8726 -7.09625 0.0 0.0 0.0 13.9649 -49.1818 -13.9155 -4.97311 0.172575 0.743476 -6.90248 30.3517 1.1026 20.4648 -0.0 -0.0 -0.0 0.0 -0.0 -2.8878 -23.2497 -3.62245 -28.453 -0.100203 -4.32067 34.8729 14.0742 4.65553 15.492 -0.0 -0.0 0.0 0.0 0.0 
